<svg xmlns="http://www.w3.org/2000/svg" width="185" height="30" viewBox="0 0 185 30"><defs><linearGradient id="dz5xa" x1="185" x2="0" y1="0" y2="30" gradientUnits="userSpaceOnUse"><stop offset="0" stop-color="#314771"/><stop offset="1" stop-color="#1d283e"/></linearGradient></defs><g><g><path fill="url(#dz5xa)" d="M133.097 5.162c-5.824 0-10.507 4.374-10.507 9.811 0 5.473 4.664 9.865 10.469 9.847 5.729 0 10.449-4.392 10.468-9.775.02-5.437-4.663-9.883-10.43-9.883zM89 .365v24.5h15.215v4.771H84.202L84.22.366zm44.064-.01c8.7 0 15.593 6.479 15.593 14.613 0 8.17-6.95 14.666-15.65 14.666-8.568-.018-15.536-6.55-15.555-14.594-.019-8.17 6.911-14.684 15.612-14.684zm41.315-.018c5.368 0 9.402 3.205 10.43 8.21.038.143.02 2.825 0 2.97-.627 3.348-2.55 5.796-5.748 7.326l-.138.076c-.156.09-.337.212-.337.212l5.995 9.92.419.611-3.1-.03c-.775-.002-1.55 0-2.134.012-.552 0-.857-.18-1.123-.612l-2.27-3.692a237.681 237.681 0 0 1-2.24-3.707c-.306-.522-.458-1.17-.496-1.764-.061-.979-.012-1.97-.02-2.954l-.018-.736c-.039-.666.285-.9.876-1.026l.835-.16c.278-.056.554-.12.82-.2 2.456-.756 3.997-3.043 3.617-5.365-.4-2.502-2.513-4.248-5.177-4.266l-6.856.007c-1.918.009-3.448.02-3.613.029v24.356h-5.063V.337zM6.513 12.011L0 .027c1.808 0 3.426.036 5.044-.018L5.2.006c.6.005.915.247 1.214.795 3.045 5.653 6.129 11.287 9.212 16.94.076.137.155.27.24.41l.426.706c.267-.486.495-.846.685-1.206l6.12-11.233L26.17.8c.19-.324.571-.738.876-.756A71.663 71.663 0 0 1 30.13 0l2.453.009C30.4 4.034 28.23 8.031 26.063 12.02L16.293 30c-3.278-6.038-6.528-12.01-9.78-17.989zM55.271 0l9.771 17.98 6.522 12.011L69.11 30a71.663 71.663 0 0 1-3.085-.045c-.305-.018-.685-.432-.876-.756l-3.072-5.617-6.12-11.233c-.19-.36-.42-.72-.686-1.206l-.426.705c-.084.14-.164.274-.24.411-3.083 5.653-6.166 11.287-9.212 16.94-.298.548-.613.79-1.214.795l-.156-.003c-1.618-.054-3.236-.018-5.044-.018l6.513-11.984C48.744 12.011 51.994 6.038 55.272 0z"/></g></g></svg>